<svg xmlns="http://www.w3.org/2000/svg" viewBox="0 0 1440 150" preserveAspectRatio="none">
  <path fill="#c6a77c" opacity=".16" d="M0 63 L34 60 L68 70 L102 52 L145 62 L183 52 L226 67 L268 59 L309 67 L352 50 L396 61 L438 58 L482 70 L526 53 L568 68 L612 54 L654 74 L700 63 L742 66 L786 53 L828 67 L872 57 L916 72 L960 56 L1002 61 L1046 50 L1090 69 L1133 56 L1178 73 L1222 57 L1265 62 L1307 51 L1352 63 L1396 54 L1440 63 L1440 150 L0 150 Z"/>
  <path fill="#fffaf3" d="M0 54 L34 49 L68 57 L102 43 L145 51 L183 39 L226 58 L268 48 L309 54 L352 41 L396 50 L438 45 L482 61 L526 42 L568 55 L612 45 L654 63 L700 50 L742 57 L786 42 L828 54 L872 48 L916 61 L960 43 L1002 52 L1046 39 L1090 56 L1133 47 L1178 62 L1222 44 L1265 53 L1307 40 L1352 50 L1396 45 L1440 52 L1440 150 L0 150 Z"/>
  <path fill="none" stroke="#ffffff" stroke-width="3" stroke-linecap="round" opacity=".38" d="M0 54 L34 49 L68 57 L102 43 L145 51 L183 39 L226 58 L268 48 L309 54 L352 41 L396 50 L438 45 L482 61 L526 42 L568 55 L612 45 L654 63 L700 50 L742 57 L786 42 L828 54 L872 48 L916 61 L960 43 L1002 52 L1046 39 L1090 56 L1133 47 L1178 62 L1222 44 L1265 53 L1307 40 L1352 50 L1396 45 L1440 52"/>
  <path d="M68 58 q0 11.0 0 22" stroke="#c7a980" stroke-width="1.1" stroke-linecap="round" opacity=".22" fill="none"/><path d="M145 52 q2 9.0 0 18" stroke="#c7a980" stroke-width="1.1" stroke-linecap="round" opacity=".22" fill="none"/><path d="M226 59 q-1 7.0 0 14" stroke="#c7a980" stroke-width="1.1" stroke-linecap="round" opacity=".22" fill="none"/><path d="M309 55 q1 5.0 0 10" stroke="#c7a980" stroke-width="1.1" stroke-linecap="round" opacity=".22" fill="none"/><path d="M396 51 q-2 12.0 0 24" stroke="#c7a980" stroke-width="1.1" stroke-linecap="round" opacity=".22" fill="none"/><path d="M482 62 q0 10.0 0 20" stroke="#c7a980" stroke-width="1.1" stroke-linecap="round" opacity=".22" fill="none"/><path d="M568 56 q2 8.0 0 16" stroke="#c7a980" stroke-width="1.1" stroke-linecap="round" opacity=".22" fill="none"/><path d="M654 64 q-1 6.0 0 12" stroke="#c7a980" stroke-width="1.1" stroke-linecap="round" opacity=".22" fill="none"/><path d="M742 58 q1 4.0 0 8" stroke="#c7a980" stroke-width="1.1" stroke-linecap="round" opacity=".22" fill="none"/><path d="M828 55 q-2 11.0 0 22" stroke="#c7a980" stroke-width="1.1" stroke-linecap="round" opacity=".22" fill="none"/><path d="M916 62 q0 9.0 0 18" stroke="#c7a980" stroke-width="1.1" stroke-linecap="round" opacity=".22" fill="none"/><path d="M1002 53 q2 7.0 0 14" stroke="#c7a980" stroke-width="1.1" stroke-linecap="round" opacity=".22" fill="none"/><path d="M1090 57 q-1 5.0 0 10" stroke="#c7a980" stroke-width="1.1" stroke-linecap="round" opacity=".22" fill="none"/><path d="M1178 63 q1 12.0 0 24" stroke="#c7a980" stroke-width="1.1" stroke-linecap="round" opacity=".22" fill="none"/><path d="M1265 54 q-2 10.0 0 20" stroke="#c7a980" stroke-width="1.1" stroke-linecap="round" opacity=".22" fill="none"/><path d="M1352 51 q0 8.0 0 16" stroke="#c7a980" stroke-width="1.1" stroke-linecap="round" opacity=".22" fill="none"/>
</svg>