<svg xmlns="http://www.w3.org/2000/svg" viewBox="0 0 1440 150" preserveAspectRatio="none">
  <path fill="#c6a77c" opacity=".12" d="M0 0 H1440 V58 L1440 58 L1381 61 L1332 48 L1288 66 L1243 53 L1198 70 L1152 60 L1106 68 L1062 47 L1016 64 L972 54 L927 69 L882 59 L837 66 L792 46 L748 65 L702 53 L655 65 L610 60 L566 70 L522 49 L476 66 L432 55 L387 70 L342 61 L298 68 L254 47 L210 64 L166 52 L120 64 L79 59 L38 71 L0 62 Z"/>
  <path fill="#fbf4eb" d="M0 0 H1440 V46 L1440 46 L1381 51 L1332 40 L1288 54 L1243 43 L1198 62 L1152 48 L1106 58 L1062 39 L1016 52 L972 44 L927 61 L882 47 L837 56 L792 38 L748 53 L702 43 L655 57 L610 48 L566 60 L522 41 L476 54 L432 45 L387 62 L342 49 L298 58 L254 39 L210 52 L166 42 L120 56 L79 47 L38 61 L0 54 Z"/>
  <path fill="none" stroke="#ffffff" stroke-width="3" stroke-linecap="round" opacity=".34" d="M0 54 L38 61 L79 47 L120 56 L166 42 L210 52 L254 39 L298 58 L342 49 L387 62 L432 45 L476 54 L522 41 L566 60 L610 48 L655 57 L702 43 L748 53 L792 38 L837 56 L882 47 L927 61 L972 44 L1016 52 L1062 39 L1106 58 L1152 48 L1198 62 L1243 43 L1288 54 L1332 40 L1381 51 L1440 46"/>
  <path d="M38 60 q-1 -6.0 0 -12" stroke="#c7a980" stroke-width="1.05" stroke-linecap="round" opacity=".20" fill="none"/><path d="M120 55 q1 -11.0 0 -22" stroke="#c7a980" stroke-width="1.05" stroke-linecap="round" opacity=".20" fill="none"/><path d="M210 51 q-2 -8.0 0 -16" stroke="#c7a980" stroke-width="1.05" stroke-linecap="round" opacity=".20" fill="none"/><path d="M298 57 q0 -5.0 0 -10" stroke="#c7a980" stroke-width="1.05" stroke-linecap="round" opacity=".20" fill="none"/><path d="M387 61 q2 -10.0 0 -20" stroke="#c7a980" stroke-width="1.05" stroke-linecap="round" opacity=".20" fill="none"/><path d="M476 53 q-1 -7.0 0 -14" stroke="#c7a980" stroke-width="1.05" stroke-linecap="round" opacity=".20" fill="none"/><path d="M566 59 q1 -4.0 0 -8" stroke="#c7a980" stroke-width="1.05" stroke-linecap="round" opacity=".20" fill="none"/><path d="M655 56 q-2 -9.0 0 -18" stroke="#c7a980" stroke-width="1.05" stroke-linecap="round" opacity=".20" fill="none"/><path d="M748 52 q0 -6.0 0 -12" stroke="#c7a980" stroke-width="1.05" stroke-linecap="round" opacity=".20" fill="none"/><path d="M837 55 q2 -11.0 0 -22" stroke="#c7a980" stroke-width="1.05" stroke-linecap="round" opacity=".20" fill="none"/><path d="M927 60 q-1 -8.0 0 -16" stroke="#c7a980" stroke-width="1.05" stroke-linecap="round" opacity=".20" fill="none"/><path d="M1016 51 q1 -5.0 0 -10" stroke="#c7a980" stroke-width="1.05" stroke-linecap="round" opacity=".20" fill="none"/><path d="M1106 57 q-2 -10.0 0 -20" stroke="#c7a980" stroke-width="1.05" stroke-linecap="round" opacity=".20" fill="none"/><path d="M1198 61 q0 -7.0 0 -14" stroke="#c7a980" stroke-width="1.05" stroke-linecap="round" opacity=".20" fill="none"/><path d="M1288 53 q2 -4.0 0 -8" stroke="#c7a980" stroke-width="1.05" stroke-linecap="round" opacity=".20" fill="none"/><path d="M1381 50 q-1 -9.0 0 -18" stroke="#c7a980" stroke-width="1.05" stroke-linecap="round" opacity=".20" fill="none"/>
</svg>