<svg xmlns="http://www.w3.org/2000/svg" viewBox="0 0 1200 1500" preserveAspectRatio="xMidYMid slice">
  <defs>
    <linearGradient id="bg" x1="0" y1="0" x2="1" y2="1">
      <stop offset="0" stop-color="#21140f"/>
      <stop offset=".48" stop-color="#5d182b"/>
      <stop offset="1" stop-color="#080706"/>
    </linearGradient>
    <radialGradient id="glow" cx="50%" cy="26%" r="55%">
      <stop stop-color="#f5dfaa" stop-opacity=".42"/>
      <stop offset="1" stop-color="#f5dfaa" stop-opacity="0"/>
    </radialGradient>
  </defs>
  <rect width="1200" height="1500" fill="url(#bg)"/>
  <rect width="1200" height="1500" fill="url(#glow)"/>
  <g opacity=".22" fill="none" stroke="#f5dfaa" stroke-width="2">
    <path d="M120 990C300 760 490 720 690 840s320 42 420-110"/>
    <path d="M80 1120c240-210 430-210 620-90s330 80 430-42"/>
    <path d="M160 720c110-120 220-160 360-130s250 90 410-60"/>
  </g>
  <g transform="translate(130 340)" opacity=".95">
    <rect x="0" y="0" width="940" height="620" rx="54" fill="#fff8ee" opacity=".08" stroke="#f5dfaa" stroke-opacity=".2"/>
    <circle cx="470" cy="240" r="145" fill="none" stroke="#d8b46a" stroke-width="8" opacity=".62"/>
    <path d="M350 276c88-190 152-190 240 0" fill="none" stroke="#f5dfaa" stroke-width="10" stroke-linecap="round" opacity=".78"/>
    <rect x="250" y="445" width="440" height="16" rx="8" fill="#d8b46a" opacity=".62"/>
    <rect x="345" y="490" width="250" height="10" rx="5" fill="#fff8ee" opacity=".42"/>
  </g>
</svg>
